<svg xmlns="http://www.w3.org/2000/svg" xmlns:xlink="http://www.w3.org/1999/xlink" width="500" zoomAndPan="magnify" viewBox="0 0 375 374.999991" height="500" preserveAspectRatio="xMidYMid meet" version="1.0"><defs><g/><clipPath id="id1"><path d="M 207 45.679688 L 303.9375 45.679688 L 303.9375 238.429688 L 207 238.429688 Z M 207 45.679688 " clip-rule="nonzero"/></clipPath><clipPath id="id2"><path d="M 70.6875 45.679688 L 168 45.679688 L 168 238.429688 L 70.6875 238.429688 Z M 70.6875 45.679688 " clip-rule="nonzero"/></clipPath></defs><g clip-path="url(#id1)"><path fill="rgb(26.269531%, 72.938538%, 100%)" d="M 207.582031 45.660156 L 207.582031 85.078125 L 264.441406 142.03125 L 207.582031 198.980469 L 207.582031 238.398438 L 303.796875 142.03125 Z M 207.582031 45.660156 " fill-opacity="1" fill-rule="nonzero"/></g><g clip-path="url(#id2)"><path fill="rgb(26.269531%, 72.938538%, 100%)" d="M 167.097656 85.078125 L 167.097656 45.660156 L 70.882812 142.03125 L 167.097656 238.398438 L 167.097656 198.980469 L 110.238281 142.03125 Z M 167.097656 85.078125 " fill-opacity="1" fill-rule="nonzero"/></g><path fill="rgb(26.269531%, 72.938538%, 100%)" d="M 140.347656 142.03125 L 187.335938 94.964844 L 234.324219 142.03125 L 187.335938 189.09375 Z M 140.347656 142.03125 " fill-opacity="1" fill-rule="nonzero"/><g fill="rgb(100%, 100%, 100%)" fill-opacity="1"><g transform="translate(-0.944596, 293.747765)"><g><path d="M 10.8125 0 L 3.78125 0 L 3.78125 -23.34375 L 30.203125 -23.34375 L 30.203125 -17.40625 L 10.8125 -17.40625 L 10.8125 -13.046875 L 24.859375 -13.046875 L 24.859375 -7.796875 L 10.8125 -7.796875 Z M 10.8125 0 "/></g></g></g><g fill="rgb(100%, 100%, 100%)" fill-opacity="1"><g transform="translate(32.934405, 293.747765)"><g><path d="M 11.046875 -23.34375 L 21.25 -23.34375 L 32.46875 -0.171875 L 32.46875 0 L 24.8125 0 L 22.6875 -4.59375 L 9.515625 -4.59375 L 7.375 0 L -0.109375 0 L -0.109375 -0.171875 Z M 16.03125 -18.578125 L 11.953125 -9.78125 L 20.28125 -9.78125 L 16.203125 -18.578125 Z M 16.03125 -18.578125 "/></g></g></g><g fill="rgb(100%, 100%, 100%)" fill-opacity="1"><g transform="translate(68.769888, 293.747765)"><g><path d="M 18.671875 0 L 11.640625 0 L 11.640625 -17.40625 L 0.28125 -17.40625 L 0.28125 -23.34375 L 30.03125 -23.34375 L 30.03125 -17.40625 L 18.671875 -17.40625 Z M 18.671875 0 "/></g></g></g><g fill="rgb(100%, 100%, 100%)" fill-opacity="1"><g transform="translate(102.511589, 293.747765)"><g><path d="M 25.15625 0 L 2.234375 0 L 2.234375 -5.625 L 10.359375 -5.625 L 10.359375 -17.75 L 2.234375 -17.75 L 2.234375 -23.34375 L 25.15625 -23.34375 L 25.15625 -17.75 L 17.0625 -17.75 L 17.0625 -5.625 L 25.15625 -5.625 Z M 17.96875 -26.8125 L 9.703125 -26.8125 L 9.703125 -29.96875 L 17.96875 -29.96875 Z M 17.96875 -26.8125 "/></g></g></g><g fill="rgb(100%, 100%, 100%)" fill-opacity="1"><g transform="translate(133.335744, 293.747765)"><g><path d="M 25.609375 -14.859375 L 25.609375 -23.34375 L 32.640625 -23.34375 L 32.640625 0 L 25.609375 0 L 25.609375 -8.890625 L 10.8125 -8.890625 L 10.8125 0 L 3.78125 0 L 3.78125 -23.34375 L 10.8125 -23.34375 L 10.8125 -14.859375 Z M 25.609375 -14.859375 "/></g></g></g><g fill="rgb(100%, 100%, 100%)" fill-opacity="1"><g transform="translate(173.187159, 293.747765)"><g/></g></g><g fill="rgb(100%, 100%, 100%)" fill-opacity="1"><g transform="translate(187.261091, 293.747765)"><g><path d="M 18.609375 0.546875 C 14.484375 0.546875 11.257812 0.164062 8.9375 -0.59375 C 6.613281 -1.363281 4.941406 -2.625 3.921875 -4.375 C 2.910156 -6.125 2.40625 -8.554688 2.40625 -11.671875 C 2.40625 -14.804688 2.90625 -17.25 3.90625 -19 C 4.914062 -20.75 6.582031 -22 8.90625 -22.75 C 11.226562 -23.507812 14.460938 -23.890625 18.609375 -23.890625 C 22.742188 -23.890625 25.972656 -23.507812 28.296875 -22.75 C 30.617188 -22 32.285156 -20.75 33.296875 -19 C 34.304688 -17.25 34.8125 -14.804688 34.8125 -11.671875 C 34.8125 -8.554688 34.304688 -6.125 33.296875 -4.375 C 32.285156 -2.625 30.617188 -1.363281 28.296875 -0.59375 C 25.972656 0.164062 22.742188 0.546875 18.609375 0.546875 Z M 18.609375 -5.625 C 21.441406 -5.625 24.28125 -5.691406 27.125 -5.828125 L 27.125 -17.546875 C 23.957031 -17.660156 21.117188 -17.71875 18.609375 -17.71875 C 16.085938 -17.71875 13.257812 -17.660156 10.125 -17.546875 L 10.125 -5.828125 C 12.9375 -5.691406 15.765625 -5.625 18.609375 -5.625 Z M 17.015625 -26.8125 L 9.53125 -26.8125 L 9.53125 -29.96875 L 17.015625 -29.96875 Z M 26.96875 -26.8125 L 19.484375 -26.8125 L 19.484375 -29.96875 L 26.96875 -29.96875 Z M 26.96875 -26.8125 "/></g></g></g><g fill="rgb(100%, 100%, 100%)" fill-opacity="1"><g transform="translate(227.901977, 293.747765)"><g><path d="M 29.625 0 L 2.328125 0 L 2.328125 -7.9375 L 21.484375 -17.296875 L 21.484375 -17.46875 L 2.84375 -17.46875 L 2.84375 -23.34375 L 29.453125 -23.34375 L 29.453125 -15.453125 L 10.296875 -6.078125 L 10.296875 -5.875 L 29.625 -5.875 Z M 29.625 0 "/></g></g></g><g fill="rgb(100%, 100%, 100%)" fill-opacity="1"><g transform="translate(263.291249, 293.747765)"><g><path d="M 16 -14.21875 L 33.640625 -14.21875 L 33.640625 -9.859375 C 33.640625 -7.359375 33.125 -5.347656 32.09375 -3.828125 C 31.0625 -2.304688 29.40625 -1.195312 27.125 -0.5 C 24.851562 0.195312 21.816406 0.546875 18.015625 0.546875 C 14.109375 0.546875 11.03125 0.15625 8.78125 -0.625 C 6.539062 -1.414062 4.914062 -2.691406 3.90625 -4.453125 C 2.90625 -6.222656 2.40625 -8.628906 2.40625 -11.671875 C 2.40625 -14.785156 2.832031 -17.21875 3.6875 -18.96875 C 4.550781 -20.71875 5.972656 -21.972656 7.953125 -22.734375 C 9.929688 -23.503906 12.691406 -23.890625 16.234375 -23.890625 C 22.347656 -23.890625 27.644531 -23.707031 32.125 -23.34375 L 32.34375 -17.09375 C 26.5 -17.644531 21.804688 -18.007812 18.265625 -18.1875 C 16.273438 -18.300781 13.5625 -18.414062 10.125 -18.53125 L 10.125 -5.828125 C 12.59375 -5.691406 15.328125 -5.625 18.328125 -5.625 C 21.421875 -5.625 24.238281 -5.691406 26.78125 -5.828125 L 26.78125 -9.40625 L 16 -9.40625 Z M 16 -14.21875 "/></g></g></g><g fill="rgb(100%, 100%, 100%)" fill-opacity="1"><g transform="translate(302.250231, 293.747765)"><g><path d="M 17.890625 0.546875 C 14.179688 0.546875 11.28125 0.179688 9.1875 -0.546875 C 7.09375 -1.273438 5.582031 -2.476562 4.65625 -4.15625 C 3.726562 -5.84375 3.265625 -8.1875 3.265625 -11.1875 L 3.265625 -23.34375 L 10.296875 -23.34375 L 10.296875 -5.828125 C 13.734375 -5.691406 16.265625 -5.625 17.890625 -5.625 C 19.484375 -5.625 22 -5.691406 25.4375 -5.828125 L 25.4375 -23.34375 L 32.46875 -23.34375 L 32.46875 -11.1875 C 32.46875 -8.1875 32.003906 -5.84375 31.078125 -4.15625 C 30.148438 -2.476562 28.640625 -1.273438 26.546875 -0.546875 C 24.453125 0.179688 21.566406 0.546875 17.890625 0.546875 Z M 17.015625 -26.8125 L 9.53125 -26.8125 L 9.53125 -29.96875 L 17.015625 -29.96875 Z M 26.96875 -26.8125 L 19.484375 -26.8125 L 19.484375 -29.96875 L 26.96875 -29.96875 Z M 26.96875 -26.8125 "/></g></g></g><g fill="rgb(100%, 100%, 100%)" fill-opacity="1"><g transform="translate(341.415161, 293.747765)"><g><path d="M 32.71875 -0.171875 L 32.71875 0 L 23.65625 0 L 15.109375 -8.09375 L 10.8125 -8.09375 L 10.8125 0 L 3.78125 0 L 3.78125 -23.34375 L 22.71875 -23.34375 C 26.039062 -23.34375 28.476562 -22.707031 30.03125 -21.4375 C 31.59375 -20.164062 32.375 -18.257812 32.375 -15.71875 C 32.375 -13.363281 31.703125 -11.550781 30.359375 -10.28125 C 29.023438 -9.007812 26.9375 -8.296875 24.09375 -8.140625 Z M 24.953125 -17.921875 L 10.8125 -17.921875 L 10.8125 -13.015625 L 24.953125 -13.015625 Z M 24.953125 -17.921875 "/></g></g></g></svg>